<svg xmlns="http://www.w3.org/2000/svg" xmlns:xlink="http://www.w3.org/1999/xlink" width="1200" zoomAndPan="magnify" viewBox="0 0 900 149.999998" height="200" preserveAspectRatio="xMidYMid meet" version="1.0"><defs><g/><clipPath id="cdf1f47127"><path d="M 669.410156 90.625 L 681.042969 90.625 L 681.042969 102.261719 L 669.410156 102.261719 Z M 669.410156 90.625 " clip-rule="nonzero"/></clipPath><clipPath id="2b965ebc47"><path d="M 675.226562 90.625 C 672.011719 90.625 669.410156 93.230469 669.410156 96.445312 C 669.410156 99.65625 672.011719 102.261719 675.226562 102.261719 C 678.4375 102.261719 681.042969 99.65625 681.042969 96.445312 C 681.042969 93.230469 678.4375 90.625 675.226562 90.625 Z M 675.226562 90.625 " clip-rule="nonzero"/></clipPath><clipPath id="0c82fb6acb"><path d="M 0.410156 0.625 L 12.042969 0.625 L 12.042969 12.261719 L 0.410156 12.261719 Z M 0.410156 0.625 " clip-rule="nonzero"/></clipPath><clipPath id="620384ebf1"><path d="M 6.226562 0.625 C 3.011719 0.625 0.410156 3.230469 0.410156 6.445312 C 0.410156 9.65625 3.011719 12.261719 6.226562 12.261719 C 9.4375 12.261719 12.042969 9.65625 12.042969 6.445312 C 12.042969 3.230469 9.4375 0.625 6.226562 0.625 Z M 6.226562 0.625 " clip-rule="nonzero"/></clipPath><clipPath id="bb46ea149e"><rect x="0" width="13" y="0" height="13"/></clipPath><clipPath id="21ecd57752"><rect x="0" width="202" y="0" height="33"/></clipPath></defs><g fill="#1b1b1b" fill-opacity="1"><g transform="translate(17.505142, 106.499996)"><g><path d="M 32.625 -10.953125 C 31.445312 -12.941406 30.140625 -14.800781 28.703125 -16.53125 C 27.265625 -18.269531 25.585938 -19.800781 23.671875 -21.125 C 23.148438 -21.488281 22.632812 -21.671875 22.125 -21.671875 C 22.050781 -21.671875 21.957031 -21.648438 21.84375 -21.609375 C 21.726562 -21.578125 21.597656 -21.5625 21.453125 -21.5625 C 20.640625 -21.414062 20.050781 -20.972656 19.6875 -20.234375 C 18.726562 -18.617188 17.988281 -17.179688 17.46875 -15.921875 C 16.957031 -14.671875 16.664062 -13.050781 16.59375 -11.0625 C 16.519531 -9.882812 16.519531 -8.722656 16.59375 -7.578125 C 16.664062 -6.429688 16.738281 -5.269531 16.8125 -4.09375 C 16.957031 -2.84375 16.660156 -1.921875 15.921875 -1.328125 C 15.703125 -1.109375 15.445312 -0.960938 15.15625 -0.890625 C 14.863281 -0.816406 14.53125 -0.738281 14.15625 -0.65625 C 13.195312 -0.4375 11.796875 -0.21875 9.953125 0 C 8.109375 0.21875 6.359375 0.203125 4.703125 -0.046875 C 3.046875 -0.304688 1.957031 -1.066406 1.4375 -2.328125 C 0.769531 -4.097656 0.363281 -6.03125 0.21875 -8.125 C 0.0703125 -10.226562 0.0351562 -12.367188 0.109375 -14.546875 C 0.179688 -16.722656 0.179688 -18.734375 0.109375 -20.578125 C 0.0351562 -24.035156 0 -27.5 0 -30.96875 C 0 -34.4375 0 -37.90625 0 -41.375 C 0.0703125 -48.226562 0.144531 -55.101562 0.21875 -62 C 0.289062 -68.894531 0.289062 -75.804688 0.21875 -82.734375 C 0.21875 -85.390625 1.4375 -86.679688 3.875 -86.609375 C 4.757812 -86.609375 5.882812 -86.679688 7.25 -86.828125 C 8.613281 -86.972656 9.976562 -87.023438 11.34375 -86.984375 C 12.707031 -86.953125 13.882812 -86.695312 14.875 -86.21875 C 15.875 -85.738281 16.410156 -84.875 16.484375 -83.625 C 16.628906 -81.707031 16.679688 -79.75 16.640625 -77.75 C 16.609375 -75.757812 16.59375 -73.804688 16.59375 -71.890625 C 16.59375 -68.578125 16.59375 -65.28125 16.59375 -62 C 16.59375 -58.71875 16.554688 -55.414062 16.484375 -52.09375 C 16.484375 -50.769531 16.664062 -49.679688 17.03125 -48.828125 C 17.40625 -47.984375 18.070312 -47.117188 19.03125 -46.234375 C 19.539062 -45.710938 20.164062 -45.453125 20.90625 -45.453125 C 21.71875 -45.453125 22.414062 -45.75 23 -46.34375 C 26.03125 -49.59375 29.054688 -52.859375 32.078125 -56.140625 C 35.097656 -59.421875 38.34375 -62.425781 41.8125 -65.15625 C 44.394531 -67.289062 47.234375 -68.132812 50.328125 -67.6875 C 51.429688 -67.613281 52.664062 -67.335938 54.03125 -66.859375 C 55.394531 -66.378906 56.445312 -65.695312 57.1875 -64.8125 C 57.925781 -63.925781 57.851562 -62.785156 56.96875 -61.390625 C 56.664062 -60.867188 56.289062 -60.382812 55.84375 -59.9375 C 55.40625 -59.5 54.96875 -59.097656 54.53125 -58.734375 C 53.125 -57.484375 51.460938 -56.007812 49.546875 -54.3125 C 47.628906 -52.613281 45.765625 -50.769531 43.953125 -48.78125 C 42.148438 -46.789062 40.640625 -44.722656 39.421875 -42.578125 C 38.210938 -40.441406 37.550781 -38.285156 37.4375 -36.109375 C 37.332031 -33.929688 38.085938 -31.773438 39.703125 -29.640625 C 42.878906 -25.367188 46.179688 -20.945312 49.609375 -16.375 C 53.035156 -11.800781 55.78125 -7.046875 57.84375 -2.109375 C 56.445312 -1.140625 54.769531 -0.632812 52.8125 -0.59375 C 50.863281 -0.5625 48.875 -0.710938 46.84375 -1.046875 C 44.8125 -1.378906 42.988281 -1.582031 41.375 -1.65625 C 39.75 -1.800781 38.457031 -2.425781 37.5 -3.53125 C 36.539062 -4.644531 35.65625 -5.863281 34.84375 -7.1875 C 34.550781 -7.851562 34.203125 -8.5 33.796875 -9.125 C 33.390625 -9.75 33 -10.359375 32.625 -10.953125 Z M 32.625 -10.953125 "/></g></g></g><g fill="#1b1b1b" fill-opacity="1"><g transform="translate(75.570824, 106.499996)"><g><path d="M 3.09375 -16.921875 C 4.351562 -18.171875 5.882812 -19.054688 7.6875 -19.578125 C 9.488281 -20.097656 11.273438 -20.0625 13.046875 -19.46875 C 15.554688 -18.726562 17.492188 -17.234375 18.859375 -14.984375 C 20.222656 -12.734375 20.609375 -10.320312 20.015625 -7.75 C 19.722656 -6.125 18.984375 -4.628906 17.796875 -3.265625 C 16.617188 -1.898438 15.222656 -0.921875 13.609375 -0.328125 C 11.242188 0.484375 8.953125 0.410156 6.734375 -0.546875 C 4.523438 -1.503906 2.773438 -3.015625 1.484375 -5.078125 C 0.203125 -7.148438 -0.21875 -9.398438 0.21875 -11.828125 C 0.664062 -13.898438 1.625 -15.597656 3.09375 -16.921875 Z M 3.09375 -16.921875 "/></g></g></g><g fill="#1b1b1b" fill-opacity="1"><g transform="translate(96.142563, 106.499996)"><g><path d="M 17.921875 -2.875 C 13.859375 -5.238281 11.179688 -8.375 9.890625 -12.28125 C 8.609375 -16.1875 8.003906 -20.351562 8.078125 -24.78125 C 8.148438 -27.351562 8.164062 -29.929688 8.125 -32.515625 C 8.09375 -35.097656 8.078125 -37.644531 8.078125 -40.15625 C 8.078125 -41.925781 8.09375 -43.710938 8.125 -45.515625 C 8.164062 -47.316406 7.484375 -48.921875 6.078125 -50.328125 C 5.347656 -51.140625 4.425781 -51.671875 3.3125 -51.921875 C 2.207031 -52.179688 1.398438 -52.867188 0.890625 -53.984375 C 0.660156 -54.492188 0.507812 -55.003906 0.4375 -55.515625 C 0.363281 -56.035156 0.289062 -56.554688 0.21875 -57.078125 C 0.144531 -58.253906 0.144531 -59.410156 0.21875 -60.546875 C 0.289062 -61.691406 0.769531 -62.707031 1.65625 -63.59375 C 2.394531 -64.257812 3.257812 -64.6875 4.25 -64.875 C 5.25 -65.0625 6.082031 -65.554688 6.75 -66.359375 C 8 -67.835938 8.625 -69.460938 8.625 -71.234375 C 8.625 -73.003906 8.550781 -74.703125 8.40625 -76.328125 C 8.257812 -77.578125 8.164062 -78.585938 8.125 -79.359375 C 8.09375 -80.140625 8.664062 -80.859375 9.84375 -81.515625 C 10.726562 -82.035156 11.851562 -82.296875 13.21875 -82.296875 C 14.582031 -82.296875 15.945312 -82.21875 17.3125 -82.0625 C 18.675781 -81.914062 19.835938 -81.769531 20.796875 -81.625 C 22.710938 -81.40625 23.742188 -80.6875 23.890625 -79.46875 C 24.035156 -78.25 24.035156 -76.867188 23.890625 -75.328125 C 23.597656 -71.046875 24.375 -67.875 26.21875 -65.8125 C 27.101562 -64.851562 28.097656 -64.28125 29.203125 -64.09375 C 30.304688 -63.914062 31.425781 -63.863281 32.5625 -63.9375 C 33.707031 -64.007812 34.796875 -64.007812 35.828125 -63.9375 C 36.867188 -63.863281 37.753906 -63.457031 38.484375 -62.71875 C 39.296875 -61.90625 39.644531 -60.664062 39.53125 -59 C 39.425781 -57.34375 39.300781 -56 39.15625 -54.96875 C 39.007812 -53.570312 38.398438 -52.578125 37.328125 -51.984375 C 36.265625 -51.390625 35.007812 -50.945312 33.5625 -50.65625 C 32.125 -50.363281 30.722656 -50.015625 29.359375 -49.609375 C 28.003906 -49.203125 26.957031 -48.519531 26.21875 -47.5625 C 25.40625 -46.53125 24.722656 -44.78125 24.171875 -42.3125 C 23.617188 -39.84375 23.304688 -37.078125 23.234375 -34.015625 C 23.160156 -30.953125 23.363281 -28.019531 23.84375 -25.21875 C 24.320312 -22.414062 25.1875 -20.09375 26.4375 -18.25 C 27.6875 -16.40625 29.34375 -15.484375 31.40625 -15.484375 C 32.289062 -15.484375 33.234375 -15.664062 34.234375 -16.03125 C 35.234375 -16.40625 36.210938 -16.71875 37.171875 -16.96875 C 38.128906 -17.226562 38.972656 -17.175781 39.703125 -16.8125 C 40.734375 -16.445312 41.617188 -15.46875 42.359375 -13.875 C 43.097656 -12.289062 43.691406 -11.054688 44.140625 -10.171875 C 44.578125 -9.359375 44.867188 -8.550781 45.015625 -7.75 C 45.085938 -6.632812 44.644531 -5.765625 43.6875 -5.140625 C 42.726562 -4.515625 41.84375 -3.984375 41.03125 -3.546875 C 37.414062 -1.472656 33.582031 -0.304688 29.53125 -0.046875 C 25.476562 0.203125 21.609375 -0.738281 17.921875 -2.875 Z M 17.921875 -2.875 "/></g></g></g><g fill="#1b1b1b" fill-opacity="1"><g transform="translate(141.489065, 106.499996)"><g><path d="M 62.046875 -28.09375 C 61.160156 -27.351562 59.851562 -26.851562 58.125 -26.59375 C 56.394531 -26.34375 54.550781 -26.21875 52.59375 -26.21875 C 50.632812 -26.21875 48.804688 -26.253906 47.109375 -26.328125 C 45.421875 -26.398438 44.132812 -26.4375 43.25 -26.4375 C 39.414062 -26.363281 35.617188 -26.304688 31.859375 -26.265625 C 28.097656 -26.234375 24.300781 -26.21875 20.46875 -26.21875 C 19.28125 -26.21875 18.519531 -25.847656 18.1875 -25.109375 C 17.863281 -24.367188 17.828125 -23.535156 18.078125 -22.609375 C 18.335938 -21.691406 18.691406 -20.898438 19.140625 -20.234375 C 20.679688 -18.242188 22.613281 -16.640625 24.9375 -15.421875 C 27.257812 -14.210938 29.675781 -13.457031 32.1875 -13.15625 C 34.988281 -12.863281 37.328125 -13.25 39.203125 -14.3125 C 41.085938 -15.382812 43.210938 -16.515625 45.578125 -17.703125 C 46.679688 -18.285156 47.4375 -18.648438 47.84375 -18.796875 C 48.25 -18.953125 48.929688 -18.625 49.890625 -17.8125 C 50.921875 -17 51.894531 -15.890625 52.8125 -14.484375 C 53.738281 -13.085938 54.644531 -11.875 55.53125 -10.84375 C 56.488281 -9.582031 56.445312 -8.398438 55.40625 -7.296875 C 54.375 -6.191406 52.789062 -5.175781 50.65625 -4.25 C 48.519531 -3.332031 46.195312 -2.539062 43.6875 -1.875 C 41.1875 -1.21875 38.921875 -0.703125 36.890625 -0.328125 C 34.859375 0.0351562 33.472656 0.21875 32.734375 0.21875 C 27.796875 0.21875 23.242188 -0.753906 19.078125 -2.703125 C 14.910156 -4.660156 11.351562 -7.316406 8.40625 -10.671875 C 5.457031 -14.023438 3.242188 -17.800781 1.765625 -22 C 0.296875 -26.207031 -0.273438 -30.613281 0.046875 -35.21875 C 0.378906 -39.832031 1.800781 -44.316406 4.3125 -48.671875 C 6.226562 -52.054688 8.789062 -54.925781 12 -57.28125 C 15.207031 -59.644531 18.742188 -61.398438 22.609375 -62.546875 C 26.484375 -63.691406 30.445312 -64.207031 34.5 -64.09375 C 38.5625 -63.988281 42.414062 -63.175781 46.0625 -61.65625 C 49.71875 -60.144531 52.910156 -57.878906 55.640625 -54.859375 C 56.890625 -53.460938 58.085938 -51.710938 59.234375 -49.609375 C 60.378906 -47.503906 61.351562 -45.234375 62.15625 -42.796875 C 62.96875 -40.367188 63.46875 -37.992188 63.65625 -35.671875 C 63.84375 -33.347656 63.601562 -31.226562 62.9375 -29.3125 C 62.789062 -28.863281 62.492188 -28.457031 62.046875 -28.09375 Z M 45.34375 -39.59375 C 45.570312 -40.113281 45.648438 -40.664062 45.578125 -41.25 C 45.492188 -42.132812 45.085938 -42.984375 44.359375 -43.796875 C 42.367188 -46.597656 39.785156 -48.660156 36.609375 -49.984375 C 33.441406 -51.316406 30.195312 -51.25 26.875 -49.78125 C 25.40625 -49.113281 24.023438 -48.265625 22.734375 -47.234375 C 21.441406 -46.203125 20.242188 -45.09375 19.140625 -43.90625 C 18.835938 -43.613281 18.539062 -43.28125 18.25 -42.90625 C 17.957031 -42.539062 17.738281 -42.140625 17.59375 -41.703125 C 17.289062 -40.816406 17.4375 -40.003906 18.03125 -39.265625 C 18.625 -38.523438 19.359375 -38.15625 20.234375 -38.15625 L 42.8125 -38.15625 C 44.0625 -38.15625 44.90625 -38.632812 45.34375 -39.59375 Z M 45.34375 -39.59375 "/></g></g></g><g fill="#1b1b1b" fill-opacity="1"><g transform="translate(205.416639, 106.499996)"><g><path d="M 55.640625 -57.078125 C 57.035156 -55.523438 57.476562 -53.863281 56.96875 -52.09375 C 56.738281 -51.28125 56.347656 -50.523438 55.796875 -49.828125 C 55.242188 -49.128906 54.675781 -48.445312 54.09375 -47.78125 C 53.71875 -47.414062 53.34375 -47.046875 52.96875 -46.671875 C 52.601562 -46.304688 52.238281 -45.941406 51.875 -45.578125 C 51.28125 -44.910156 50.484375 -44.6875 49.484375 -44.90625 C 48.492188 -45.125 47.5 -45.488281 46.5 -46 C 45.507812 -46.519531 44.644531 -46.894531 43.90625 -47.125 C 42.289062 -47.707031 40.6875 -48.21875 39.09375 -48.65625 C 37.507812 -49.101562 35.867188 -49.4375 34.171875 -49.65625 C 33.804688 -49.738281 33.457031 -49.78125 33.125 -49.78125 C 32.789062 -49.78125 32.441406 -49.78125 32.078125 -49.78125 C 28.460938 -49.78125 25.234375 -48.691406 22.390625 -46.515625 C 19.554688 -44.335938 17.625 -41.441406 16.59375 -37.828125 C 15.488281 -33.921875 15.597656 -30.085938 16.921875 -26.328125 C 18.253906 -22.566406 20.539062 -19.539062 23.78125 -17.25 C 26.289062 -15.5625 29.535156 -14.71875 33.515625 -14.71875 C 38.597656 -14.71875 42.691406 -15.929688 45.796875 -18.359375 C 47.265625 -19.535156 48.492188 -20.289062 49.484375 -20.625 C 50.484375 -20.957031 51.6875 -20.273438 53.09375 -18.578125 C 53.832031 -17.835938 54.550781 -17.046875 55.25 -16.203125 C 55.945312 -15.359375 56.628906 -14.492188 57.296875 -13.609375 C 58.179688 -12.421875 58.328125 -11.273438 57.734375 -10.171875 C 57.148438 -9.066406 56.15625 -8.035156 54.75 -7.078125 C 53.351562 -6.117188 51.894531 -5.289062 50.375 -4.59375 C 48.863281 -3.894531 47.703125 -3.359375 46.890625 -2.984375 C 42.398438 -0.847656 37.679688 0.21875 32.734375 0.21875 C 27.867188 0.21875 23.222656 -0.828125 18.796875 -2.921875 C 14.378906 -5.023438 10.4375 -7.992188 6.96875 -11.828125 C 4.019531 -15.296875 2.066406 -18.875 1.109375 -22.5625 C 0.148438 -26.25 -0.164062 -29.863281 0.15625 -33.40625 C 0.488281 -36.945312 1.097656 -40.15625 1.984375 -43.03125 C 3.898438 -48.925781 7.015625 -53.644531 11.328125 -57.1875 C 15.648438 -60.726562 21.019531 -62.90625 27.4375 -63.71875 C 29.570312 -63.9375 31.5625 -64.046875 33.40625 -64.046875 C 34.4375 -64.046875 35.945312 -63.914062 37.9375 -63.65625 C 39.925781 -63.394531 42.0625 -62.988281 44.34375 -62.4375 C 46.632812 -61.882812 48.8125 -61.164062 50.875 -60.28125 C 52.945312 -59.394531 54.535156 -58.328125 55.640625 -57.078125 Z M 55.640625 -57.078125 "/></g></g></g><g fill="#1b1b1b" fill-opacity="1"><g transform="translate(263.703524, 106.499996)"><g><path d="M 58.515625 -40.046875 C 58.953125 -36.359375 59.148438 -32.632812 59.109375 -28.875 C 59.078125 -25.113281 59.0625 -21.644531 59.0625 -18.46875 C 59.0625 -17.726562 59.132812 -16.414062 59.28125 -14.53125 C 59.425781 -12.65625 59.5 -10.6875 59.5 -8.625 C 59.5 -6.5625 59.332031 -4.773438 59 -3.265625 C 58.675781 -1.753906 58.070312 -0.925781 57.1875 -0.78125 C 56.007812 -0.625 54.476562 -0.398438 52.59375 -0.109375 C 50.71875 0.179688 48.910156 0.253906 47.171875 0.109375 C 45.441406 -0.0351562 44.132812 -0.660156 43.25 -1.765625 C 42.21875 -3.097656 41.8125 -4.773438 42.03125 -6.796875 C 42.25 -8.828125 42.320312 -10.582031 42.25 -12.0625 C 42.25 -16.1875 42.226562 -20.273438 42.1875 -24.328125 C 42.15625 -28.390625 42.175781 -32.445312 42.25 -36.5 C 42.25 -40.332031 41.328125 -43.390625 39.484375 -45.671875 C 37.640625 -47.960938 34.988281 -49.332031 31.53125 -49.78125 C 31.300781 -49.851562 31.078125 -49.890625 30.859375 -49.890625 C 30.640625 -49.890625 30.421875 -49.890625 30.203125 -49.890625 C 28.054688 -49.890625 26.039062 -49.316406 24.15625 -48.171875 C 22.28125 -47.023438 20.734375 -45.507812 19.515625 -43.625 C 18.304688 -41.75 17.585938 -39.671875 17.359375 -37.390625 C 17.140625 -34.660156 17.007812 -31.945312 16.96875 -29.25 C 16.9375 -26.5625 16.957031 -23.890625 17.03125 -21.234375 C 17.03125 -18.285156 17.007812 -15.300781 16.96875 -12.28125 C 16.9375 -9.257812 16.921875 -6.234375 16.921875 -3.203125 C 16.921875 -2.097656 16.347656 -1.320312 15.203125 -0.875 C 14.066406 -0.4375 12.664062 -0.21875 11 -0.21875 C 9.34375 -0.21875 7.757812 -0.289062 6.25 -0.4375 C 4.738281 -0.582031 3.578125 -0.65625 2.765625 -0.65625 C 1.660156 -0.65625 0.90625 -1.191406 0.5 -2.265625 C 0.09375 -3.335938 -0.0703125 -4.609375 0 -6.078125 C 0.0703125 -7.554688 0.195312 -8.976562 0.375 -10.34375 C 0.5625 -11.707031 0.65625 -12.757812 0.65625 -13.5 C 0.738281 -15.632812 0.796875 -17.769531 0.828125 -19.90625 C 0.867188 -22.050781 0.890625 -24.191406 0.890625 -26.328125 C 0.890625 -35.546875 0.796875 -44.757812 0.609375 -53.96875 C 0.421875 -63.1875 0.328125 -72.367188 0.328125 -81.515625 C 0.328125 -82.691406 0.472656 -83.78125 0.765625 -84.78125 C 1.066406 -85.78125 1.878906 -86.425781 3.203125 -86.71875 C 4.828125 -87.082031 6.523438 -87.171875 8.296875 -86.984375 C 10.066406 -86.804688 11.765625 -86.679688 13.390625 -86.609375 C 15.378906 -86.535156 16.703125 -85.832031 17.359375 -84.5 C 18.023438 -83.175781 18.300781 -81.535156 18.1875 -79.578125 C 18.082031 -77.628906 17.84375 -75.710938 17.46875 -73.828125 C 17.101562 -71.953125 16.921875 -70.421875 16.921875 -69.234375 L 16.921875 -63.59375 C 16.921875 -62.789062 17.253906 -62.09375 17.921875 -61.5 C 18.359375 -61.050781 18.984375 -60.828125 19.796875 -60.828125 C 19.867188 -60.828125 19.921875 -60.828125 19.953125 -60.828125 C 19.992188 -60.828125 20.050781 -60.828125 20.125 -60.828125 C 21.3125 -60.984375 22.4375 -61.148438 23.5 -61.328125 C 24.570312 -61.515625 25.585938 -61.679688 26.546875 -61.828125 C 28.460938 -62.203125 30.304688 -62.5 32.078125 -62.71875 C 33.847656 -62.9375 35.546875 -63.046875 37.171875 -63.046875 C 42.179688 -63.046875 46.140625 -61.972656 49.046875 -59.828125 C 51.960938 -57.691406 54.140625 -54.875 55.578125 -51.375 C 57.015625 -47.875 57.992188 -44.097656 58.515625 -40.046875 Z M 58.515625 -40.046875 "/></g></g></g><g fill="#1b1b1b" fill-opacity="1"><g transform="translate(323.428222, 106.499996)"><g/></g></g><g fill="#1b1b1b" fill-opacity="1"><g transform="translate(367.889935, 106.499996)"><g><path d="M 38.046875 -2.875 C 33.992188 -0.957031 29.898438 0 25.765625 0 C 23.410156 0 20.8125 -0.328125 17.96875 -0.984375 C 15.132812 -1.648438 12.367188 -2.5 9.671875 -3.53125 C 6.984375 -4.570312 4.609375 -5.679688 2.546875 -6.859375 C 0.992188 -7.742188 0.179688 -8.644531 0.109375 -9.5625 C 0.0351562 -10.488281 0.367188 -11.445312 1.109375 -12.4375 C 1.847656 -13.4375 2.546875 -14.523438 3.203125 -15.703125 C 3.429688 -16.078125 3.671875 -16.425781 3.921875 -16.75 C 4.179688 -17.082031 4.457031 -17.363281 4.75 -17.59375 C 5.5625 -18.175781 6.410156 -18.359375 7.296875 -18.140625 C 8.179688 -17.921875 9.046875 -17.550781 9.890625 -17.03125 C 10.742188 -16.519531 11.503906 -16.078125 12.171875 -15.703125 C 14.453125 -14.453125 16.957031 -13.53125 19.6875 -12.9375 C 22.414062 -12.351562 25.070312 -12.132812 27.65625 -12.28125 C 29.570312 -12.425781 31.335938 -12.847656 32.953125 -13.546875 C 34.578125 -14.242188 35.535156 -15.21875 35.828125 -16.46875 C 36.128906 -17.726562 35.25 -19.207031 33.1875 -20.90625 C 30.457031 -23.039062 27.5625 -24.804688 24.5 -26.203125 C 21.4375 -27.609375 18.285156 -28.828125 15.046875 -29.859375 C 12.023438 -30.816406 9.59375 -32.253906 7.75 -34.171875 C 5.90625 -36.085938 4.59375 -38.226562 3.8125 -40.59375 C 3.039062 -42.957031 2.800781 -45.242188 3.09375 -47.453125 C 3.46875 -49.804688 4.390625 -52.050781 5.859375 -54.1875 C 7.335938 -56.332031 9.179688 -58.210938 11.390625 -59.828125 C 13.609375 -61.453125 16.003906 -62.5625 18.578125 -63.15625 C 20.054688 -63.53125 21.492188 -63.804688 22.890625 -63.984375 C 24.296875 -64.171875 25.695312 -64.265625 27.09375 -64.265625 C 29.75 -64.265625 32.367188 -63.953125 34.953125 -63.328125 C 37.535156 -62.703125 40.003906 -61.832031 42.359375 -60.71875 C 44.503906 -59.757812 46.035156 -58.859375 46.953125 -58.015625 C 47.878906 -57.171875 48.210938 -56.15625 47.953125 -54.96875 C 47.691406 -53.789062 46.820312 -52.132812 45.34375 -50 C 44.238281 -48.375 42.984375 -47.46875 41.578125 -47.28125 C 40.179688 -47.101562 38.671875 -47.304688 37.046875 -47.890625 C 35.429688 -48.484375 33.789062 -49.203125 32.125 -50.046875 C 30.46875 -50.898438 28.847656 -51.617188 27.265625 -52.203125 C 25.679688 -52.796875 24.222656 -52.976562 22.890625 -52.75 C 21.566406 -52.53125 20.390625 -51.613281 19.359375 -50 C 18.398438 -48.375 18.125 -46.953125 18.53125 -45.734375 C 18.9375 -44.515625 19.765625 -43.460938 21.015625 -42.578125 C 22.265625 -41.691406 23.71875 -40.953125 25.375 -40.359375 C 27.039062 -39.773438 28.644531 -39.257812 30.1875 -38.8125 C 31.738281 -38.375 32.992188 -37.972656 33.953125 -37.609375 C 36.753906 -36.578125 39.484375 -35.320312 42.140625 -33.84375 C 44.796875 -32.375 46.9375 -30.3125 48.5625 -27.65625 C 50.769531 -23.96875 51.5625 -20.519531 50.9375 -17.3125 C 50.3125 -14.101562 48.816406 -11.265625 46.453125 -8.796875 C 44.097656 -6.328125 41.296875 -4.351562 38.046875 -2.875 Z M 38.046875 -2.875 "/></g></g></g><g fill="#1b1b1b" fill-opacity="1"><g transform="translate(419.208902, 106.499996)"><g><path d="M 17.921875 -2.875 C 13.859375 -5.238281 11.179688 -8.375 9.890625 -12.28125 C 8.609375 -16.1875 8.003906 -20.351562 8.078125 -24.78125 C 8.148438 -27.351562 8.164062 -29.929688 8.125 -32.515625 C 8.09375 -35.097656 8.078125 -37.644531 8.078125 -40.15625 C 8.078125 -41.925781 8.09375 -43.710938 8.125 -45.515625 C 8.164062 -47.316406 7.484375 -48.921875 6.078125 -50.328125 C 5.347656 -51.140625 4.425781 -51.671875 3.3125 -51.921875 C 2.207031 -52.179688 1.398438 -52.867188 0.890625 -53.984375 C 0.660156 -54.492188 0.507812 -55.003906 0.4375 -55.515625 C 0.363281 -56.035156 0.289062 -56.554688 0.21875 -57.078125 C 0.144531 -58.253906 0.144531 -59.410156 0.21875 -60.546875 C 0.289062 -61.691406 0.769531 -62.707031 1.65625 -63.59375 C 2.394531 -64.257812 3.257812 -64.6875 4.25 -64.875 C 5.25 -65.0625 6.082031 -65.554688 6.75 -66.359375 C 8 -67.835938 8.625 -69.460938 8.625 -71.234375 C 8.625 -73.003906 8.550781 -74.703125 8.40625 -76.328125 C 8.257812 -77.578125 8.164062 -78.585938 8.125 -79.359375 C 8.09375 -80.140625 8.664062 -80.859375 9.84375 -81.515625 C 10.726562 -82.035156 11.851562 -82.296875 13.21875 -82.296875 C 14.582031 -82.296875 15.945312 -82.21875 17.3125 -82.0625 C 18.675781 -81.914062 19.835938 -81.769531 20.796875 -81.625 C 22.710938 -81.40625 23.742188 -80.6875 23.890625 -79.46875 C 24.035156 -78.25 24.035156 -76.867188 23.890625 -75.328125 C 23.597656 -71.046875 24.375 -67.875 26.21875 -65.8125 C 27.101562 -64.851562 28.097656 -64.28125 29.203125 -64.09375 C 30.304688 -63.914062 31.425781 -63.863281 32.5625 -63.9375 C 33.707031 -64.007812 34.796875 -64.007812 35.828125 -63.9375 C 36.867188 -63.863281 37.753906 -63.457031 38.484375 -62.71875 C 39.296875 -61.90625 39.644531 -60.664062 39.53125 -59 C 39.425781 -57.34375 39.300781 -56 39.15625 -54.96875 C 39.007812 -53.570312 38.398438 -52.578125 37.328125 -51.984375 C 36.265625 -51.390625 35.007812 -50.945312 33.5625 -50.65625 C 32.125 -50.363281 30.722656 -50.015625 29.359375 -49.609375 C 28.003906 -49.203125 26.957031 -48.519531 26.21875 -47.5625 C 25.40625 -46.53125 24.722656 -44.78125 24.171875 -42.3125 C 23.617188 -39.84375 23.304688 -37.078125 23.234375 -34.015625 C 23.160156 -30.953125 23.363281 -28.019531 23.84375 -25.21875 C 24.320312 -22.414062 25.1875 -20.09375 26.4375 -18.25 C 27.6875 -16.40625 29.34375 -15.484375 31.40625 -15.484375 C 32.289062 -15.484375 33.234375 -15.664062 34.234375 -16.03125 C 35.234375 -16.40625 36.210938 -16.71875 37.171875 -16.96875 C 38.128906 -17.226562 38.972656 -17.175781 39.703125 -16.8125 C 40.734375 -16.445312 41.617188 -15.46875 42.359375 -13.875 C 43.097656 -12.289062 43.691406 -11.054688 44.140625 -10.171875 C 44.578125 -9.359375 44.867188 -8.550781 45.015625 -7.75 C 45.085938 -6.632812 44.644531 -5.765625 43.6875 -5.140625 C 42.726562 -4.515625 41.84375 -3.984375 41.03125 -3.546875 C 37.414062 -1.472656 33.582031 -0.304688 29.53125 -0.046875 C 25.476562 0.203125 21.609375 -0.738281 17.921875 -2.875 Z M 17.921875 -2.875 "/></g></g></g><g fill="#1b1b1b" fill-opacity="1"><g transform="translate(464.555426, 106.499996)"><g><path d="M 43.359375 -0.78125 C 39.816406 -0.550781 36.273438 -0.363281 32.734375 -0.21875 C 29.203125 -0.0703125 25.664062 0 22.125 0 C 16.070312 0 11.09375 -2.097656 7.1875 -6.296875 C 3.28125 -10.503906 1.066406 -16.070312 0.546875 -23 C 0.109375 -29.269531 -0.0351562 -35.578125 0.109375 -41.921875 C 0.253906 -48.265625 0.363281 -54.566406 0.4375 -60.828125 C 0.4375 -61.785156 0.953125 -62.46875 1.984375 -62.875 C 3.023438 -63.28125 4.300781 -63.539062 5.8125 -63.65625 C 7.320312 -63.769531 8.757812 -63.769531 10.125 -63.65625 C 11.488281 -63.539062 12.5 -63.484375 13.15625 -63.484375 C 14.632812 -63.484375 15.6875 -62.96875 16.3125 -61.9375 C 16.9375 -60.90625 17.304688 -59.632812 17.421875 -58.125 C 17.535156 -56.613281 17.535156 -55.101562 17.421875 -53.59375 C 17.304688 -52.082031 17.25 -50.882812 17.25 -50 C 17.175781 -45.71875 17.046875 -41.457031 16.859375 -37.21875 C 16.679688 -32.976562 16.847656 -28.757812 17.359375 -24.5625 C 17.734375 -21.53125 18.859375 -19 20.734375 -16.96875 C 22.617188 -14.945312 25.144531 -13.828125 28.3125 -13.609375 C 28.457031 -13.609375 28.601562 -13.609375 28.75 -13.609375 C 28.90625 -13.609375 29.054688 -13.609375 29.203125 -13.609375 C 32.585938 -13.609375 35.5 -14.820312 37.9375 -17.25 C 40.375 -19.6875 41.628906 -22.675781 41.703125 -26.21875 C 41.847656 -31.226562 41.957031 -36.296875 42.03125 -41.421875 C 42.101562 -46.546875 42.066406 -51.875 41.921875 -57.40625 C 41.847656 -59.988281 42.179688 -61.648438 42.921875 -62.390625 C 43.648438 -63.117188 44.84375 -63.628906 46.5 -63.921875 C 48.164062 -64.222656 49.898438 -64.28125 51.703125 -64.09375 C 53.515625 -63.914062 55.066406 -63.457031 56.359375 -62.71875 C 57.648438 -61.976562 58.296875 -60.945312 58.296875 -59.625 C 58.296875 -54.675781 58.21875 -49.734375 58.0625 -44.796875 C 57.914062 -39.859375 57.769531 -34.914062 57.625 -29.96875 C 57.550781 -26.507812 57.566406 -23.082031 57.671875 -19.6875 C 57.785156 -16.289062 58.101562 -12.863281 58.625 -9.40625 C 59.0625 -6.75 58.835938 -4.8125 57.953125 -3.59375 C 57.066406 -2.375 55.8125 -1.597656 54.1875 -1.265625 C 52.570312 -0.941406 50.785156 -0.816406 48.828125 -0.890625 C 46.878906 -0.960938 45.054688 -0.925781 43.359375 -0.78125 Z M 43.359375 -0.78125 "/></g></g></g><g fill="#1b1b1b" fill-opacity="1"><g transform="translate(523.616504, 106.499996)"><g><path d="M 4.53125 -15.265625 C 2.175781 -19.535156 0.757812 -23.882812 0.28125 -28.3125 C -0.195312 -32.738281 0.113281 -37 1.21875 -41.09375 C 2.320312 -45.1875 4 -48.851562 6.25 -52.09375 C 8.5 -55.34375 11.132812 -57.890625 14.15625 -59.734375 C 18.289062 -62.234375 22.898438 -63.484375 27.984375 -63.484375 C 29.015625 -63.484375 30.320312 -63.257812 31.90625 -62.8125 C 33.488281 -62.375 35.144531 -61.914062 36.875 -61.4375 C 38.613281 -60.957031 40.273438 -60.679688 41.859375 -60.609375 C 43.453125 -60.535156 44.800781 -60.832031 45.90625 -61.5 C 47.007812 -62.164062 47.707031 -63.421875 48 -65.265625 C 48.375 -67.910156 48.445312 -70.78125 48.21875 -73.875 C 48 -76.976562 47.816406 -79.894531 47.671875 -82.625 C 47.597656 -84.46875 47.96875 -85.644531 48.78125 -86.15625 C 49.59375 -86.675781 50.679688 -86.898438 52.046875 -86.828125 C 53.410156 -86.753906 54.789062 -86.679688 56.1875 -86.609375 C 57.519531 -86.609375 58.773438 -86.695312 59.953125 -86.875 C 61.128906 -87.0625 62.085938 -86.96875 62.828125 -86.59375 C 63.566406 -86.226562 63.9375 -85.125 63.9375 -83.28125 C 63.9375 -76.5 63.9375 -69.71875 63.9375 -62.9375 C 63.9375 -56.15625 63.9375 -49.367188 63.9375 -42.578125 C 63.863281 -36.316406 64.007812 -30.03125 64.375 -23.71875 C 64.738281 -17.414062 64.628906 -11.128906 64.046875 -4.859375 C 63.898438 -3.242188 63.382812 -2.195312 62.5 -1.71875 C 61.613281 -1.238281 60.539062 -1.085938 59.28125 -1.265625 C 58.03125 -1.453125 56.738281 -1.765625 55.40625 -2.203125 C 54.082031 -2.648438 52.867188 -2.945312 51.765625 -3.09375 C 49.035156 -3.46875 46.488281 -3.503906 44.125 -3.203125 C 41.769531 -2.910156 39.300781 -2.25 36.71875 -1.21875 C 32.59375 0.332031 28.316406 0.59375 23.890625 -0.4375 C 19.835938 -1.320312 16.078125 -3.109375 12.609375 -5.796875 C 9.140625 -8.492188 6.445312 -11.648438 4.53125 -15.265625 Z M 32.515625 -50.65625 C 29.710938 -50.65625 27.078125 -49.75 24.609375 -47.9375 C 22.140625 -46.132812 20.128906 -43.796875 18.578125 -40.921875 C 17.035156 -38.046875 16.265625 -34.988281 16.265625 -31.75 C 16.265625 -28.644531 17.019531 -25.707031 18.53125 -22.9375 C 20.039062 -20.175781 22.03125 -17.929688 24.5 -16.203125 C 26.96875 -14.472656 29.601562 -13.570312 32.40625 -13.5 L 32.84375 -13.5 C 36.601562 -13.5 39.847656 -14.863281 42.578125 -17.59375 C 46.046875 -21.195312 47.78125 -25.953125 47.78125 -31.859375 C 47.78125 -37.316406 46.378906 -41.796875 43.578125 -45.296875 C 40.773438 -48.796875 37.160156 -50.582031 32.734375 -50.65625 Z M 32.515625 -50.65625 "/></g></g></g><g fill="#1b1b1b" fill-opacity="1"><g transform="translate(588.428878, 106.499996)"><g><path d="M 4.203125 -69.6875 C 2.578125 -70.71875 1.394531 -72.171875 0.65625 -74.046875 C -0.0703125 -75.929688 -0.109375 -77.976562 0.546875 -80.1875 C 1.804688 -84.539062 4.757812 -86.789062 9.40625 -86.9375 L 9.625 -86.9375 C 11.90625 -86.9375 13.820312 -86.328125 15.375 -85.109375 C 16.925781 -83.890625 17.957031 -82.210938 18.46875 -80.078125 C 19.132812 -77.421875 18.875 -74.988281 17.6875 -72.78125 C 16.507812 -70.570312 14.519531 -69.132812 11.71875 -68.46875 C 10.320312 -68.175781 8.976562 -68.140625 7.6875 -68.359375 C 6.394531 -68.578125 5.234375 -69.019531 4.203125 -69.6875 Z M 2.65625 -58.625 C 3.6875 -59.289062 5.160156 -59.582031 7.078125 -59.5 C 8.179688 -59.5 9.394531 -59.535156 10.71875 -59.609375 C 12.050781 -59.691406 13.289062 -59.566406 14.4375 -59.234375 C 15.582031 -58.898438 16.335938 -58.144531 16.703125 -56.96875 C 17.367188 -55.125 17.585938 -52.890625 17.359375 -50.265625 C 17.140625 -47.648438 17.03125 -45.382812 17.03125 -43.46875 C 17.101562 -38.96875 17.140625 -34.503906 17.140625 -30.078125 C 17.140625 -25.660156 17.175781 -21.203125 17.25 -16.703125 C 17.25 -15.960938 17.34375 -14.722656 17.53125 -12.984375 C 17.71875 -11.253906 17.828125 -9.394531 17.859375 -7.40625 C 17.898438 -5.414062 17.695312 -3.71875 17.25 -2.3125 C 16.8125 -0.914062 15.925781 -0.179688 14.59375 -0.109375 C 12.90625 -0.0351562 11.140625 0.015625 9.296875 0.046875 C 7.453125 0.0859375 5.679688 0 3.984375 -0.21875 C 2.804688 -0.363281 1.992188 -1.007812 1.546875 -2.15625 C 1.109375 -3.300781 0.867188 -4.679688 0.828125 -6.296875 C 0.796875 -7.921875 0.851562 -9.46875 1 -10.9375 C 1.144531 -12.414062 1.21875 -13.5625 1.21875 -14.375 C 1.144531 -17.40625 1.085938 -20.445312 1.046875 -23.5 C 1.015625 -26.5625 1 -29.601562 1 -32.625 C 0.925781 -35.207031 0.890625 -37.789062 0.890625 -40.375 C 0.890625 -42.957031 0.851562 -45.5 0.78125 -48 C 0.78125 -50.144531 0.738281 -52.210938 0.65625 -54.203125 C 0.582031 -56.191406 1.25 -57.664062 2.65625 -58.625 Z M 2.65625 -58.625 "/></g></g></g><g fill="#1b1b1b" fill-opacity="1"><g transform="translate(607.562849, 106.499996)"><g><path d="M 0.109375 -32.078125 C 0.0351562 -36.203125 0.847656 -40.3125 2.546875 -44.40625 C 4.242188 -48.5 6.601562 -52.09375 9.625 -55.1875 C 12.5 -58.144531 15.78125 -60.394531 19.46875 -61.9375 C 23.15625 -63.488281 26.953125 -64.265625 30.859375 -64.265625 C 31.222656 -64.265625 31.609375 -64.265625 32.015625 -64.265625 C 32.421875 -64.265625 32.8125 -64.265625 33.1875 -64.265625 C 33.1875 -64.265625 33.203125 -64.265625 33.234375 -64.265625 C 33.273438 -64.265625 33.296875 -64.265625 33.296875 -64.265625 C 39.710938 -64.265625 45.367188 -62.9375 50.265625 -60.28125 C 55.171875 -57.625 59.023438 -53.9375 61.828125 -49.21875 C 64.628906 -44.5 66.03125 -39.039062 66.03125 -32.84375 C 66.03125 -23.1875 63.007812 -15.335938 56.96875 -9.296875 C 54.019531 -6.335938 50.5 -4.066406 46.40625 -2.484375 C 42.3125 -0.898438 37.867188 -0.109375 33.078125 -0.109375 C 28.503906 -0.109375 24.242188 -0.9375 20.296875 -2.59375 C 16.347656 -4.257812 12.878906 -6.546875 9.890625 -9.453125 C 6.910156 -12.367188 4.550781 -15.757812 2.8125 -19.625 C 1.082031 -23.5 0.179688 -27.648438 0.109375 -32.078125 Z M 32.734375 -51.09375 C 30.160156 -51.09375 27.65625 -50.265625 25.21875 -48.609375 C 22.78125 -46.953125 20.769531 -44.8125 19.1875 -42.1875 C 17.601562 -39.570312 16.773438 -36.828125 16.703125 -33.953125 C 16.628906 -30.785156 17.144531 -27.726562 18.25 -24.78125 C 19.351562 -21.832031 21.046875 -19.359375 23.328125 -17.359375 C 25.617188 -15.367188 28.460938 -14.191406 31.859375 -13.828125 C 35.617188 -13.453125 38.785156 -14.039062 41.359375 -15.59375 C 43.941406 -17.144531 45.929688 -19.265625 47.328125 -21.953125 C 48.734375 -24.648438 49.507812 -27.597656 49.65625 -30.796875 C 49.8125 -34.003906 49.332031 -37.082031 48.21875 -40.03125 C 47.113281 -42.988281 45.34375 -45.476562 42.90625 -47.5 C 40.476562 -49.53125 37.382812 -50.726562 33.625 -51.09375 C 33.476562 -51.09375 33.332031 -51.09375 33.1875 -51.09375 C 33.039062 -51.09375 32.890625 -51.09375 32.734375 -51.09375 Z M 32.734375 -51.09375 "/></g></g></g><g clip-path="url(#cdf1f47127)"><g clip-path="url(#2b965ebc47)"><g transform="matrix(1, 0, 0, 1, 669, 90)"><g clip-path="url(#bb46ea149e)"><g clip-path="url(#0c82fb6acb)"><g clip-path="url(#620384ebf1)"><path fill="#1b1b1b" d="M 0.410156 0.625 L 12.042969 0.625 L 12.042969 12.261719 L 0.410156 12.261719 Z M 0.410156 0.625 " fill-opacity="1" fill-rule="nonzero"/></g></g></g></g></g></g><g transform="matrix(1, 0, 0, 1, 687, 80)"><g clip-path="url(#21ecd57752)"><g fill="#000000" fill-opacity="1"><g transform="translate(0.543307, 23.222185)"><g><path d="M 6.09375 -21.671875 C 7.789062 -21.671875 9 -21.273438 9.71875 -20.484375 C 10.445312 -19.691406 10.8125 -18.488281 10.8125 -16.875 L 10.8125 -15.859375 C 10.8125 -14.703125 10.625 -13.765625 10.25 -13.046875 C 9.875 -12.335938 9.210938 -11.835938 8.265625 -11.546875 C 9.316406 -11.265625 10.066406 -10.71875 10.515625 -9.90625 C 10.960938 -9.101562 11.1875 -8.101562 11.1875 -6.90625 L 11.1875 -5.078125 C 11.1875 -3.441406 10.78125 -2.1875 9.96875 -1.3125 C 9.164062 -0.4375 7.914062 0 6.21875 0 L 1.234375 0 L 1.234375 -21.671875 Z M 5.515625 -12.484375 C 6.484375 -12.484375 7.207031 -12.675781 7.6875 -13.0625 C 8.175781 -13.457031 8.421875 -14.222656 8.421875 -15.359375 L 8.421875 -16.625 C 8.421875 -17.59375 8.238281 -18.3125 7.875 -18.78125 C 7.519531 -19.25 6.90625 -19.484375 6.03125 -19.484375 L 3.65625 -19.484375 L 3.65625 -12.484375 Z M 6.21875 -2.203125 C 7.9375 -2.203125 8.796875 -3.179688 8.796875 -5.140625 L 8.796875 -7.0625 C 8.796875 -8.28125 8.550781 -9.117188 8.0625 -9.578125 C 7.582031 -10.046875 6.816406 -10.28125 5.765625 -10.28125 L 3.65625 -10.28125 L 3.65625 -2.203125 Z M 6.21875 -2.203125 "/></g></g></g><g fill="#000000" fill-opacity="1"><g transform="translate(12.681497, 23.222185)"><g><path d="M 5.078125 -7.765625 L 0.5 -21.671875 L 3 -21.671875 L 6.375 -11.03125 L 9.78125 -21.671875 L 12.078125 -21.671875 L 7.46875 -7.765625 L 7.46875 0 L 5.078125 0 Z M 5.078125 -7.765625 "/></g></g></g><g fill="#000000" fill-opacity="1"><g transform="translate(25.253188, 23.222185)"><g/></g></g><g fill="#000000" fill-opacity="1"><g transform="translate(30.052725, 23.222185)"><g><path d="M 4.921875 -9.421875 L 3.65625 -7.28125 L 3.65625 0 L 1.234375 0 L 1.234375 -21.671875 L 3.65625 -21.671875 L 3.65625 -11.203125 L 9.421875 -21.671875 L 11.859375 -21.671875 L 6.375 -11.796875 L 12.046875 0 L 9.5625 0 Z M 4.921875 -9.421875 "/></g></g></g><g fill="#000000" fill-opacity="1"><g transform="translate(42.717314, 23.222185)"><g><path d="M 6.0625 -21.671875 C 7.78125 -21.671875 9.015625 -21.25 9.765625 -20.40625 C 10.523438 -19.5625 10.90625 -18.332031 10.90625 -16.71875 L 10.90625 -14.953125 C 10.90625 -13.753906 10.6875 -12.785156 10.25 -12.046875 C 9.8125 -11.304688 9.128906 -10.789062 8.203125 -10.5 C 9.191406 -10.207031 9.894531 -9.671875 10.3125 -8.890625 C 10.726562 -8.117188 10.9375 -7.148438 10.9375 -5.984375 L 10.9375 -2.59375 C 10.9375 -2.125 10.957031 -1.664062 11 -1.21875 C 11.039062 -0.78125 11.160156 -0.375 11.359375 0 L 8.921875 0 C 8.773438 -0.3125 8.671875 -0.644531 8.609375 -1 C 8.546875 -1.363281 8.515625 -1.90625 8.515625 -2.625 L 8.515625 -6.03125 C 8.515625 -7.25 8.238281 -8.09375 7.6875 -8.5625 C 7.144531 -9.03125 6.367188 -9.265625 5.359375 -9.265625 L 3.65625 -9.265625 L 3.65625 0 L 1.234375 0 L 1.234375 -21.671875 Z M 5.453125 -11.453125 C 6.421875 -11.453125 7.171875 -11.65625 7.703125 -12.0625 C 8.242188 -12.46875 8.515625 -13.257812 8.515625 -14.4375 L 8.515625 -16.5 C 8.515625 -17.5 8.320312 -18.242188 7.9375 -18.734375 C 7.5625 -19.234375 6.921875 -19.484375 6.015625 -19.484375 L 3.65625 -19.484375 L 3.65625 -11.453125 Z M 5.453125 -11.453125 "/></g></g></g><g fill="#000000" fill-opacity="1"><g transform="translate(54.91743, 23.222185)"><g><path d="M 10.75 0 L 0.890625 0 L 0.890625 -2.171875 L 8.328125 -19.484375 L 1.234375 -19.484375 L 1.234375 -21.671875 L 10.8125 -21.671875 L 10.8125 -19.515625 L 3.34375 -2.203125 L 10.75 -2.203125 Z M 10.75 0 "/></g></g></g><g fill="#000000" fill-opacity="1"><g transform="translate(66.653073, 23.222185)"><g><path d="M 5.078125 -7.765625 L 0.5 -21.671875 L 3 -21.671875 L 6.375 -11.03125 L 9.78125 -21.671875 L 12.078125 -21.671875 L 7.46875 -7.765625 L 7.46875 0 L 5.078125 0 Z M 5.078125 -7.765625 "/></g></g></g><g fill="#000000" fill-opacity="1"><g transform="translate(79.224763, 23.222185)"><g><path d="M 5.796875 -21.890625 C 7.441406 -21.890625 8.65625 -21.398438 9.4375 -20.421875 C 10.226562 -19.441406 10.625 -18.125 10.625 -16.46875 L 10.625 -15.890625 L 8.328125 -15.890625 L 8.328125 -16.59375 C 8.328125 -17.582031 8.128906 -18.347656 7.734375 -18.890625 C 7.347656 -19.429688 6.722656 -19.703125 5.859375 -19.703125 C 4.984375 -19.703125 4.347656 -19.429688 3.953125 -18.890625 C 3.566406 -18.347656 3.375 -17.59375 3.375 -16.625 C 3.375 -15.820312 3.550781 -15.117188 3.90625 -14.515625 C 4.269531 -13.921875 4.71875 -13.367188 5.25 -12.859375 C 5.789062 -12.359375 6.375 -11.863281 7 -11.375 C 7.632812 -10.894531 8.21875 -10.363281 8.75 -9.78125 C 9.289062 -9.207031 9.742188 -8.550781 10.109375 -7.8125 C 10.472656 -7.082031 10.65625 -6.210938 10.65625 -5.203125 C 10.65625 -3.546875 10.253906 -2.226562 9.453125 -1.25 C 8.660156 -0.269531 7.429688 0.21875 5.765625 0.21875 C 4.085938 0.21875 2.851562 -0.269531 2.0625 -1.25 C 1.28125 -2.226562 0.890625 -3.546875 0.890625 -5.203125 L 0.890625 -6.4375 L 3.15625 -6.4375 L 3.15625 -5.078125 C 3.15625 -4.085938 3.359375 -3.320312 3.765625 -2.78125 C 4.179688 -2.25 4.828125 -1.984375 5.703125 -1.984375 C 6.566406 -1.984375 7.203125 -2.25 7.609375 -2.78125 C 8.023438 -3.320312 8.234375 -4.085938 8.234375 -5.078125 C 8.234375 -5.878906 8.050781 -6.570312 7.6875 -7.15625 C 7.332031 -7.75 6.882812 -8.296875 6.34375 -8.796875 C 5.8125 -9.304688 5.234375 -9.804688 4.609375 -10.296875 C 3.992188 -10.785156 3.414062 -11.316406 2.875 -11.890625 C 2.34375 -12.472656 1.894531 -13.128906 1.53125 -13.859375 C 1.164062 -14.585938 0.984375 -15.457031 0.984375 -16.46875 C 0.984375 -18.144531 1.375 -19.46875 2.15625 -20.4375 C 2.945312 -21.40625 4.160156 -21.890625 5.796875 -21.890625 Z M 5.796875 -21.890625 "/></g></g></g><g fill="#000000" fill-opacity="1"><g transform="translate(90.743656, 23.222185)"><g><path d="M 10.75 0 L 0.890625 0 L 0.890625 -2.171875 L 8.328125 -19.484375 L 1.234375 -19.484375 L 1.234375 -21.671875 L 10.8125 -21.671875 L 10.8125 -19.515625 L 3.34375 -2.203125 L 10.75 -2.203125 Z M 10.75 0 "/></g></g></g><g fill="#000000" fill-opacity="1"><g transform="translate(102.479298, 23.222185)"><g><path d="M 4.390625 0 L 4.390625 -19.484375 L 0.40625 -19.484375 L 0.40625 -21.671875 L 10.8125 -21.671875 L 10.8125 -19.484375 L 6.8125 -19.484375 L 6.8125 0 Z M 4.390625 0 "/></g></g></g><g fill="#000000" fill-opacity="1"><g transform="translate(113.719514, 23.222185)"><g><path d="M 1.046875 -16.4375 C 1.046875 -18.113281 1.453125 -19.441406 2.265625 -20.421875 C 3.085938 -21.398438 4.335938 -21.890625 6.015625 -21.890625 C 7.679688 -21.890625 8.925781 -21.398438 9.75 -20.421875 C 10.582031 -19.441406 11 -18.113281 11 -16.4375 L 11 -5.234375 C 11 -3.578125 10.582031 -2.253906 9.75 -1.265625 C 8.925781 -0.273438 7.679688 0.21875 6.015625 0.21875 C 4.335938 0.21875 3.085938 -0.273438 2.265625 -1.265625 C 1.453125 -2.253906 1.046875 -3.578125 1.046875 -5.234375 Z M 3.4375 -5.109375 C 3.4375 -4.117188 3.644531 -3.347656 4.0625 -2.796875 C 4.488281 -2.253906 5.140625 -1.984375 6.015625 -1.984375 C 6.898438 -1.984375 7.546875 -2.253906 7.953125 -2.796875 C 8.367188 -3.347656 8.578125 -4.117188 8.578125 -5.109375 L 8.578125 -16.5625 C 8.578125 -17.5625 8.367188 -18.332031 7.953125 -18.875 C 7.546875 -19.425781 6.898438 -19.703125 6.015625 -19.703125 C 5.140625 -19.703125 4.488281 -19.425781 4.0625 -18.875 C 3.644531 -18.332031 3.4375 -17.5625 3.4375 -16.5625 Z M 3.4375 -5.109375 "/></g></g></g><g fill="#000000" fill-opacity="1"><g transform="translate(125.764806, 23.222185)"><g><path d="M 8.640625 -11.578125 L 8.640625 -9.390625 L 3.65625 -9.390625 L 3.65625 0 L 1.234375 0 L 1.234375 -21.671875 L 9.84375 -21.671875 L 9.84375 -19.484375 L 3.65625 -19.484375 L 3.65625 -11.578125 Z M 8.640625 -11.578125 "/></g></g></g><g fill="#000000" fill-opacity="1"><g transform="translate(136.292826, 23.222185)"><g/></g></g><g fill="#000000" fill-opacity="1"><g transform="translate(141.092363, 23.222185)"><g><path d="M 5.796875 -21.890625 C 7.441406 -21.890625 8.65625 -21.398438 9.4375 -20.421875 C 10.226562 -19.441406 10.625 -18.125 10.625 -16.46875 L 10.625 -15.890625 L 8.328125 -15.890625 L 8.328125 -16.59375 C 8.328125 -17.582031 8.128906 -18.347656 7.734375 -18.890625 C 7.347656 -19.429688 6.722656 -19.703125 5.859375 -19.703125 C 4.984375 -19.703125 4.347656 -19.429688 3.953125 -18.890625 C 3.566406 -18.347656 3.375 -17.59375 3.375 -16.625 C 3.375 -15.820312 3.550781 -15.117188 3.90625 -14.515625 C 4.269531 -13.921875 4.71875 -13.367188 5.25 -12.859375 C 5.789062 -12.359375 6.375 -11.863281 7 -11.375 C 7.632812 -10.894531 8.21875 -10.363281 8.75 -9.78125 C 9.289062 -9.207031 9.742188 -8.550781 10.109375 -7.8125 C 10.472656 -7.082031 10.65625 -6.210938 10.65625 -5.203125 C 10.65625 -3.546875 10.253906 -2.226562 9.453125 -1.25 C 8.660156 -0.269531 7.429688 0.21875 5.765625 0.21875 C 4.085938 0.21875 2.851562 -0.269531 2.0625 -1.25 C 1.28125 -2.226562 0.890625 -3.546875 0.890625 -5.203125 L 0.890625 -6.4375 L 3.15625 -6.4375 L 3.15625 -5.078125 C 3.15625 -4.085938 3.359375 -3.320312 3.765625 -2.78125 C 4.179688 -2.25 4.828125 -1.984375 5.703125 -1.984375 C 6.566406 -1.984375 7.203125 -2.25 7.609375 -2.78125 C 8.023438 -3.320312 8.234375 -4.085938 8.234375 -5.078125 C 8.234375 -5.878906 8.050781 -6.570312 7.6875 -7.15625 C 7.332031 -7.75 6.882812 -8.296875 6.34375 -8.796875 C 5.8125 -9.304688 5.234375 -9.804688 4.609375 -10.296875 C 3.992188 -10.785156 3.414062 -11.316406 2.875 -11.890625 C 2.34375 -12.472656 1.894531 -13.128906 1.53125 -13.859375 C 1.164062 -14.585938 0.984375 -15.457031 0.984375 -16.46875 C 0.984375 -18.144531 1.375 -19.46875 2.15625 -20.4375 C 2.945312 -21.40625 4.160156 -21.890625 5.796875 -21.890625 Z M 5.796875 -21.890625 "/></g></g></g><g fill="#000000" fill-opacity="1"><g transform="translate(152.611256, 23.222185)"><g><path d="M 3.65625 -21.671875 L 3.65625 0 L 1.234375 0 L 1.234375 -21.671875 Z M 3.65625 -21.671875 "/></g></g></g><g fill="#000000" fill-opacity="1"><g transform="translate(157.503691, 23.222185)"><g><path d="M 7 0 L 3.6875 0 L 0.71875 -21.671875 L 3.0625 -21.671875 L 5.609375 -3.21875 L 8.015625 -21.640625 L 10.40625 -21.640625 L 12.796875 -3.1875 L 15.234375 -21.671875 L 17.34375 -21.671875 L 14.40625 0 L 11.203125 0 L 9.140625 -14.703125 Z M 7 0 "/></g></g></g><g fill="#000000" fill-opacity="1"><g transform="translate(175.556142, 23.222185)"><g><path d="M 3.6875 -4.359375 L 2.84375 0 L 0.625 0 L 4.765625 -21.671875 L 8.265625 -21.671875 L 12.421875 0 L 10 0 L 9.171875 -4.359375 Z M 4 -6.4375 L 8.828125 -6.4375 L 6.375 -18.953125 Z M 4 -6.4375 "/></g></g></g><g fill="#000000" fill-opacity="1"><g transform="translate(188.623278, 23.222185)"><g><path d="M 4.921875 -9.421875 L 3.65625 -7.28125 L 3.65625 0 L 1.234375 0 L 1.234375 -21.671875 L 3.65625 -21.671875 L 3.65625 -11.203125 L 9.421875 -21.671875 L 11.859375 -21.671875 L 6.375 -11.796875 L 12.046875 0 L 9.5625 0 Z M 4.921875 -9.421875 "/></g></g></g></g></g></svg>